 <svg id="moving-wave" viewBox="0 0 900 600" width="900" height="600" xmlns="http://www.w3.org/2000/svg"
            xmlns:xlink="http://www.w3.org/1999/xlink" version="1.1">
            <rect x="0" y="0" width="900" height="600" fill="#FFFFFF"></rect>
            <path id="a1"
                d="M0 279L30 288C60 297 120 315 180 339.5C240 364 300 395 360 406.8C420 418.7 480 411.3 540 391.5C600 371.7 660 339.3 720 333.8C780 328.3 840 349.7 870 360.3L900 371L900 0L870 0C840 0 780 0 720 0C660 0 600 0 540 0C480 0 420 0 360 0C300 0 240 0 180 0C120 0 60 0 30 0L0 0Z"
                fill="#8bc8fa">
            </path>
            <path id="a2"
                d="M0 229L30 251.2C60 273.3 120 317.7 180 323.8C240 330 300 298 360 305.3C420 312.7 480 359.3 540 355.2C600 351 660 296 720 272.8C780 249.7 840 258.3 870 262.7L900 267L900 0L870 0C840 0 780 0 720 0C660 0 600 0 540 0C480 0 420 0 360 0C300 0 240 0 180 0C120 0 60 0 30 0L0 0Z"
                fill="#a1d1fb"></path>
            <path id="a3"
                d="M0 236L30 243.3C60 250.7 120 265.3 180 269.8C240 274.3 300 268.7 360 275.3C420 282 480 301 540 312.7C600 324.3 660 328.7 720 333C780 337.3 840 341.7 870 343.8L900 346L900 0L870 0C840 0 780 0 720 0C660 0 600 0 540 0C480 0 420 0 360 0C300 0 240 0 180 0C120 0 60 0 30 0L0 0Z"
                fill="#b6dafc">
            </path>
            <path id="a4"
                d="M0 128L30 139C60 150 120 172 180 175.5C240 179 300 164 360 154.7C420 145.3 480 141.7 540 139.5C600 137.3 660 136.7 720 140C780 143.3 840 150.7 870 154.3L900 158L900 0L870 0C840 0 780 0 720 0C660 0 600 0 540 0C480 0 420 0 360 0C300 0 240 0 180 0C120 0 60 0 30 0L0 0Z"
                fill="#c9e3fd"></path>
            <path id="a5"
                d="M0 191L30 195.3C60 199.7 120 208.3 180 214.5C240 220.7 300 224.3 360 227.5C420 230.7 480 233.3 540 217.3C600 201.3 660 166.7 720 143.7C780 120.7 840 109.3 870 103.7L900 98L900 0L870 0C840 0 780 0 720 0C660 0 600 0 540 0C480 0 420 0 360 0C300 0 240 0 180 0C120 0 60 0 30 0L0 0Z"
                fill="#dbecfe"></path>
            <path id="a6"
                d="M0 171L30 166.7C60 162.3 120 153.7 180 153.7C240 153.7 300 162.3 360 146.5C420 130.7 480 90.3 540 90C600 89.7 660 129.3 720 135.7C780 142 840 115 870 101.5L900 88L900 0L870 0C840 0 780 0 720 0C660 0 600 0 540 0C480 0 420 0 360 0C300 0 240 0 180 0C120 0 60 0 30 0L0 0Z"
                fill="#edf6fe"></path>
            <path id="a7"
                d="M0 101L30 92.3C60 83.7 120 66.3 180 64C240 61.7 300 74.3 360 69.2C420 64 480 41 540 30.3C600 19.7 660 21.3 720 24.8C780 28.3 840 33.7 870 36.3L900 39L900 0L870 0C840 0 780 0 720 0C660 0 600 0 540 0C480 0 420 0 360 0C300 0 240 0 180 0C120 0 60 0 30 0L0 0Z"
                fill="#ffffff"></path>

            <path id="b1" style="visibility:hidden"
                d="M0 355L30 367.7C60 380.3 120 405.7 180 399.5C240 393.3 300 355.7 360 326C420 296.3 480 274.7 540 277.2C600 279.7 660 306.3 720 308.2C780 310 840 287 870 275.5L900 264L900 0L870 0C840 0 780 0 720 0C660 0 600 0 540 0C480 0 420 0 360 0C300 0 240 0 180 0C120 0 60 0 30 0L0 0Z"
                fill="#8bc8fa"></path>
            <path id="b2" style="visibility:hidden"
                d="M0 291L30 307C60 323 120 355 180 342C240 329 300 271 360 248.3C420 225.7 480 238.3 540 258.7C600 279 660 307 720 314.3C780 321.7 840 308.3 870 301.7L900 295L900 0L870 0C840 0 780 0 720 0C660 0 600 0 540 0C480 0 420 0 360 0C300 0 240 0 180 0C120 0 60 0 30 0L0 0Z"
                fill="#a1d1fb"></path>
            <path id="b3" style="visibility:hidden"
                d="M0 268L30 280.5C60 293 120 318 180 301.8C240 285.7 300 228.3 360 230C420 231.7 480 292.3 540 322.5C600 352.7 660 352.3 720 325.5C780 298.7 840 245.3 870 218.7L900 192L900 0L870 0C840 0 780 0 720 0C660 0 600 0 540 0C480 0 420 0 360 0C300 0 240 0 180 0C120 0 60 0 30 0L0 0Z"
                fill="#b6dafc"></path>
            <path id="b4" style="visibility:hidden"
                d="M0 107L30 113.7C60 120.3 120 133.7 180 138C240 142.3 300 137.7 360 141.7C420 145.7 480 158.3 540 180.8C600 203.3 660 235.7 720 248.3C780 261 840 254 870 250.5L900 247L900 0L870 0C840 0 780 0 720 0C660 0 600 0 540 0C480 0 420 0 360 0C300 0 240 0 180 0C120 0 60 0 30 0L0 0Z"
                fill="#c9e3fd"></path>

            <path id="b5" style="visibility:hidden"
                d="M0 175L30 166C60 157 120 139 180 146.8C240 154.7 300 188.3 360 192.3C420 196.3 480 170.7 540 169.5C600 168.3 660 191.7 720 194.3C780 197 840 179 870 170L900 161L900 0L870 0C840 0 780 0 720 0C660 0 600 0 540 0C480 0 420 0 360 0C300 0 240 0 180 0C120 0 60 0 30 0L0 0Z"
                fill="#dbecfe"></path>

            <path id="b6" style="visibility:hidden"
                d="M0 69L30 65.7C60 62.3 120 55.7 180 58C240 60.3 300 71.7 360 77.8C420 84 480 85 540 78.7C600 72.3 660 58.7 720 71.2C780 83.7 840 122.3 870 141.7L900 161L900 0L870 0C840 0 780 0 720 0C660 0 600 0 540 0C480 0 420 0 360 0C300 0 240 0 180 0C120 0 60 0 30 0L0 0Z"
                fill="#edf6fe"></path>

            <path id="b7" style="visibility:hidden"
                d="M0 25L30 23.7C60 22.3 120 19.7 180 30C240 40.3 300 63.7 360 75C420 86.3 480 85.7 540 73.5C600 61.3 660 37.7 720 40.2C780 42.7 840 71.3 870 85.7L900 100L900 0L870 0C840 0 780 0 720 0C660 0 600 0 540 0C480 0 420 0 360 0C300 0 240 0 180 0C120 0 60 0 30 0L0 0Z"
                fill="#ffffff"></path>
        </svg>