<svg id="visual" viewBox="0 0 900 600" width="900" height="600" xmlns="http://www.w3.org/2000/svg" xmlns:xlink="http://www.w3.org/1999/xlink" version="1.1"><rect x="0" y="0" width="900" height="600" fill="#FFFFFF"></rect><path d="M0 355L30 367.7C60 380.3 120 405.7 180 399.5C240 393.3 300 355.7 360 326C420 296.3 480 274.7 540 277.2C600 279.7 660 306.3 720 308.2C780 310 840 287 870 275.5L900 264L900 0L870 0C840 0 780 0 720 0C660 0 600 0 540 0C480 0 420 0 360 0C300 0 240 0 180 0C120 0 60 0 30 0L0 0Z" fill="#8bc8fa"></path><path d="M0 291L30 307C60 323 120 355 180 342C240 329 300 271 360 248.3C420 225.7 480 238.3 540 258.7C600 279 660 307 720 314.3C780 321.7 840 308.3 870 301.7L900 295L900 0L870 0C840 0 780 0 720 0C660 0 600 0 540 0C480 0 420 0 360 0C300 0 240 0 180 0C120 0 60 0 30 0L0 0Z" fill="#a1d1fb"></path><path d="M0 268L30 280.5C60 293 120 318 180 301.8C240 285.7 300 228.3 360 230C420 231.7 480 292.3 540 322.5C600 352.7 660 352.3 720 325.5C780 298.7 840 245.3 870 218.7L900 192L900 0L870 0C840 0 780 0 720 0C660 0 600 0 540 0C480 0 420 0 360 0C300 0 240 0 180 0C120 0 60 0 30 0L0 0Z" fill="#b6dafc"></path><path d="M0 107L30 113.7C60 120.3 120 133.7 180 138C240 142.3 300 137.7 360 141.7C420 145.7 480 158.3 540 180.8C600 203.3 660 235.7 720 248.3C780 261 840 254 870 250.5L900 247L900 0L870 0C840 0 780 0 720 0C660 0 600 0 540 0C480 0 420 0 360 0C300 0 240 0 180 0C120 0 60 0 30 0L0 0Z" fill="#c9e3fd"></path><path d="M0 175L30 166C60 157 120 139 180 146.8C240 154.7 300 188.3 360 192.3C420 196.3 480 170.7 540 169.5C600 168.3 660 191.7 720 194.3C780 197 840 179 870 170L900 161L900 0L870 0C840 0 780 0 720 0C660 0 600 0 540 0C480 0 420 0 360 0C300 0 240 0 180 0C120 0 60 0 30 0L0 0Z" fill="#dbecfe"></path><path d="M0 69L30 65.7C60 62.3 120 55.7 180 58C240 60.3 300 71.7 360 77.8C420 84 480 85 540 78.7C600 72.3 660 58.7 720 71.2C780 83.7 840 122.3 870 141.7L900 161L900 0L870 0C840 0 780 0 720 0C660 0 600 0 540 0C480 0 420 0 360 0C300 0 240 0 180 0C120 0 60 0 30 0L0 0Z" fill="#edf6fe"></path><path d="M0 25L30 23.7C60 22.3 120 19.7 180 30C240 40.3 300 63.7 360 75C420 86.3 480 85.7 540 73.5C600 61.3 660 37.7 720 40.2C780 42.7 840 71.3 870 85.7L900 100L900 0L870 0C840 0 780 0 720 0C660 0 600 0 540 0C480 0 420 0 360 0C300 0 240 0 180 0C120 0 60 0 30 0L0 0Z" fill="#ffffff"></path></svg>