<svg id="visual" viewBox="0 0 900 600" width="900" height="600" xmlns="http://www.w3.org/2000/svg" xmlns:xlink="http://www.w3.org/1999/xlink" version="1.1"><rect x="0" y="0" width="900" height="600" fill="#FFFFFF"></rect><path d="M0 431L50 450.5C100 470 200 509 300 517.7C400 526.3 500 504.7 600 442C700 379.3 800 275.7 850 223.8L900 172L900 0L850 0C800 0 700 0 600 0C500 0 400 0 300 0C200 0 100 0 50 0L0 0Z" fill="#8bc8fa"></path><path d="M0 144L50 162.5C100 181 200 218 300 225.7C400 233.3 500 211.7 600 222.7C700 233.7 800 277.3 850 299.2L900 321L900 0L850 0C800 0 700 0 600 0C500 0 400 0 300 0C200 0 100 0 50 0L0 0Z" fill="#9fb8ff"></path><path d="M0 69L50 89.8C100 110.7 200 152.3 300 183.3C400 214.3 500 234.7 600 226.8C700 219 800 183 850 165L900 147L900 0L850 0C800 0 700 0 600 0C500 0 400 0 300 0C200 0 100 0 50 0L0 0Z" fill="#cea0ff"></path></svg>