<svg id="visual" viewBox="0 0 900 600" width="900" height="600" xmlns="http://www.w3.org/2000/svg" xmlns:xlink="http://www.w3.org/1999/xlink" version="1.1"><rect x="0" y="0" width="900" height="600" fill="#FFFFFF"></rect><path d="M0 417L25 427.8C50 438.7 100 460.3 150 454C200 447.7 250 413.3 300 408.8C350 404.3 400 429.7 450 446.2C500 462.7 550 470.3 600 464.8C650 459.3 700 440.7 750 437.8C800 435 850 448 875 454.5L900 461L900 0L875 0C850 0 800 0 750 0C700 0 650 0 600 0C550 0 500 0 450 0C400 0 350 0 300 0C250 0 200 0 150 0C100 0 50 0 25 0L0 0Z" fill="#79bdf4"></path><path d="M0 391L25 392.5C50 394 100 397 150 403.8C200 410.7 250 421.3 300 409.2C350 397 400 362 450 353.3C500 344.7 550 362.3 600 367.2C650 372 700 364 750 366.5C800 369 850 382 875 388.5L900 395L900 0L875 0C850 0 800 0 750 0C700 0 650 0 600 0C550 0 500 0 450 0C400 0 350 0 300 0C250 0 200 0 150 0C100 0 50 0 25 0L0 0Z" fill="#90c6f6"></path><path d="M0 308L25 303.2C50 298.3 100 288.7 150 287.2C200 285.7 250 292.3 300 295.2C350 298 400 297 450 304.3C500 311.7 550 327.3 600 328.2C650 329 700 315 750 311C800 307 850 313 875 316L900 319L900 0L875 0C850 0 800 0 750 0C700 0 650 0 600 0C550 0 500 0 450 0C400 0 350 0 300 0C250 0 200 0 150 0C100 0 50 0 25 0L0 0Z" fill="#a4cff8"></path><path d="M0 279L25 275C50 271 100 263 150 252.5C200 242 250 229 300 231C350 233 400 250 450 249.8C500 249.7 550 232.3 600 236.2C650 240 700 265 750 282.2C800 299.3 850 308.7 875 313.3L900 318L900 0L875 0C850 0 800 0 750 0C700 0 650 0 600 0C550 0 500 0 450 0C400 0 350 0 300 0C250 0 200 0 150 0C100 0 50 0 25 0L0 0Z" fill="#b8d8f9"></path><path d="M0 201L25 198.5C50 196 100 191 150 186.7C200 182.3 250 178.7 300 189.3C350 200 400 225 450 224.5C500 224 550 198 600 191.5C650 185 700 198 750 201.3C800 204.7 850 198.3 875 195.2L900 192L900 0L875 0C850 0 800 0 750 0C700 0 650 0 600 0C550 0 500 0 450 0C400 0 350 0 300 0C250 0 200 0 150 0C100 0 50 0 25 0L0 0Z" fill="#cae2fb"></path><path d="M0 173L25 170.5C50 168 100 163 150 166.7C200 170.3 250 182.7 300 179.8C350 177 400 159 450 150C500 141 550 141 600 144.3C650 147.7 700 154.3 750 159.3C800 164.3 850 167.7 875 169.3L900 171L900 0L875 0C850 0 800 0 750 0C700 0 650 0 600 0C550 0 500 0 450 0C400 0 350 0 300 0C250 0 200 0 150 0C100 0 50 0 25 0L0 0Z" fill="#dcebfc"></path><path d="M0 116L25 116.3C50 116.7 100 117.3 150 116.8C200 116.3 250 114.7 300 112.2C350 109.7 400 106.3 450 106.2C500 106 550 109 600 112.2C650 115.3 700 118.7 750 115C800 111.3 850 100.7 875 95.3L900 90L900 0L875 0C850 0 800 0 750 0C700 0 650 0 600 0C550 0 500 0 450 0C400 0 350 0 300 0C250 0 200 0 150 0C100 0 50 0 25 0L0 0Z" fill="#eef5fe"></path><path d="M0 49L25 52.5C50 56 100 63 150 67.5C200 72 250 74 300 74C350 74 400 72 450 67.2C500 62.3 550 54.7 600 51.2C650 47.7 700 48.3 750 47.8C800 47.3 850 45.7 875 44.8L900 44L900 0L875 0C850 0 800 0 750 0C700 0 650 0 600 0C550 0 500 0 450 0C400 0 350 0 300 0C250 0 200 0 150 0C100 0 50 0 25 0L0 0Z" fill="#ffffff"></path></svg>