<svg id="visual" viewBox="0 0 900 600" width="900" height="600" xmlns="http://www.w3.org/2000/svg" xmlns:xlink="http://www.w3.org/1999/xlink" version="1.1"><rect x="0" y="0" width="900" height="600" fill="#FFFFFF"></rect><path d="M0 332L18.8 343C37.7 354 75.3 376 112.8 396.8C150.3 417.7 187.7 437.3 225.2 428C262.7 418.7 300.3 380.3 337.8 381.7C375.3 383 412.7 424 450.2 445.5C487.7 467 525.3 469 562.8 470.3C600.3 471.7 637.7 472.3 675.2 461.3C712.7 450.3 750.3 427.7 787.8 406.3C825.3 385 862.7 365 881.3 355L900 345L900 601L881.3 601C862.7 601 825.3 601 787.8 601C750.3 601 712.7 601 675.2 601C637.7 601 600.3 601 562.8 601C525.3 601 487.7 601 450.2 601C412.7 601 375.3 601 337.8 601C300.3 601 262.7 601 225.2 601C187.7 601 150.3 601 112.8 601C75.3 601 37.7 601 18.8 601L0 601Z" fill="#e1007b"></path><path d="M0 483L18.8 481.8C37.7 480.7 75.3 478.3 112.8 464.2C150.3 450 187.7 424 225.2 423.2C262.7 422.3 300.3 446.7 337.8 455.5C375.3 464.3 412.7 457.7 450.2 446C487.7 434.3 525.3 417.7 562.8 402.3C600.3 387 637.7 373 675.2 381.2C712.7 389.3 750.3 419.7 787.8 437C825.3 454.3 862.7 458.7 881.3 460.8L900 463L900 601L881.3 601C862.7 601 825.3 601 787.8 601C750.3 601 712.7 601 675.2 601C637.7 601 600.3 601 562.8 601C525.3 601 487.7 601 450.2 601C412.7 601 375.3 601 337.8 601C300.3 601 262.7 601 225.2 601C187.7 601 150.3 601 112.8 601C75.3 601 37.7 601 18.8 601L0 601Z" fill="#ce4cb4"></path><path d="M0 433L18.8 440.3C37.7 447.7 75.3 462.3 112.8 477.2C150.3 492 187.7 507 225.2 511.2C262.7 515.3 300.3 508.7 337.8 491.8C375.3 475 412.7 448 450.2 442.7C487.7 437.3 525.3 453.7 562.8 455.5C600.3 457.3 637.7 444.7 675.2 454.5C712.7 464.3 750.3 496.7 787.8 509.7C825.3 522.7 862.7 516.3 881.3 513.2L900 510L900 601L881.3 601C862.7 601 825.3 601 787.8 601C750.3 601 712.7 601 675.2 601C637.7 601 600.3 601 562.8 601C525.3 601 487.7 601 450.2 601C412.7 601 375.3 601 337.8 601C300.3 601 262.7 601 225.2 601C187.7 601 150.3 601 112.8 601C75.3 601 37.7 601 18.8 601L0 601Z" fill="#a975de"></path><path d="M0 518L18.8 518C37.7 518 75.3 518 112.8 507.7C150.3 497.3 187.7 476.7 225.2 482C262.7 487.3 300.3 518.7 337.8 527.8C375.3 537 412.7 524 450.2 526.8C487.7 529.7 525.3 548.3 562.8 539.7C600.3 531 637.7 495 675.2 482C712.7 469 750.3 479 787.8 484.2C825.3 489.3 862.7 489.7 881.3 489.8L900 490L900 601L881.3 601C862.7 601 825.3 601 787.8 601C750.3 601 712.7 601 675.2 601C637.7 601 600.3 601 562.8 601C525.3 601 487.7 601 450.2 601C412.7 601 375.3 601 337.8 601C300.3 601 262.7 601 225.2 601C187.7 601 150.3 601 112.8 601C75.3 601 37.7 601 18.8 601L0 601Z" fill="#7a94f4"></path><path d="M0 514L18.8 513.2C37.7 512.3 75.3 510.7 112.8 518C150.3 525.3 187.7 541.7 225.2 550.5C262.7 559.3 300.3 560.7 337.8 557.5C375.3 554.3 412.7 546.7 450.2 542.5C487.7 538.3 525.3 537.7 562.8 540.2C600.3 542.7 637.7 548.3 675.2 545.5C712.7 542.7 750.3 531.3 787.8 530.3C825.3 529.3 862.7 538.7 881.3 543.3L900 548L900 601L881.3 601C862.7 601 825.3 601 787.8 601C750.3 601 712.7 601 675.2 601C637.7 601 600.3 601 562.8 601C525.3 601 487.7 601 450.2 601C412.7 601 375.3 601 337.8 601C300.3 601 262.7 601 225.2 601C187.7 601 150.3 601 112.8 601C75.3 601 37.7 601 18.8 601L0 601Z" fill="#4facf7"></path></svg>