<svg id="visual" viewBox="0 0 900 600" width="900" height="600" xmlns="http://www.w3.org/2000/svg" xmlns:xlink="http://www.w3.org/1999/xlink" version="1.1"><rect x="0" y="0" width="900" height="600" fill="#FFFFFF"></rect><path d="M0 266L18.8 255C37.7 244 75.3 222 112.8 201.2C150.3 180.3 187.7 160.7 225.2 170C262.7 179.3 300.3 217.7 337.8 216.3C375.3 215 412.7 174 450.2 152.5C487.7 131 525.3 129 562.8 127.7C600.3 126.3 637.7 125.7 675.2 136.7C712.7 147.7 750.3 170.3 787.8 191.7C825.3 213 862.7 233 881.3 243L900 253L900 0L881.3 0C862.7 0 825.3 0 787.8 0C750.3 0 712.7 0 675.2 0C637.7 0 600.3 0 562.8 0C525.3 0 487.7 0 450.2 0C412.7 0 375.3 0 337.8 0C300.3 0 262.7 0 225.2 0C187.7 0 150.3 0 112.8 0C75.3 0 37.7 0 18.8 0L0 0Z" fill="#4facf7"></path><path d="M0 115L18.8 116.2C37.7 117.3 75.3 119.7 112.8 133.8C150.3 148 187.7 174 225.2 174.8C262.7 175.7 300.3 151.3 337.8 142.5C375.3 133.7 412.7 140.3 450.2 152C487.7 163.7 525.3 180.3 562.8 195.7C600.3 211 637.7 225 675.2 216.8C712.7 208.7 750.3 178.3 787.8 161C825.3 143.7 862.7 139.3 881.3 137.2L900 135L900 0L881.3 0C862.7 0 825.3 0 787.8 0C750.3 0 712.7 0 675.2 0C637.7 0 600.3 0 562.8 0C525.3 0 487.7 0 450.2 0C412.7 0 375.3 0 337.8 0C300.3 0 262.7 0 225.2 0C187.7 0 150.3 0 112.8 0C75.3 0 37.7 0 18.8 0L0 0Z" fill="#4c96f1"></path><path d="M0 165L18.8 157.7C37.7 150.3 75.3 135.7 112.8 120.8C150.3 106 187.7 91 225.2 87C262.7 83 300.3 90 337.8 106.8C375.3 123.7 412.7 150.3 450.2 155.5C487.7 160.7 525.3 144.3 562.8 142.5C600.3 140.7 637.7 153.3 675.2 143.5C712.7 133.7 750.3 101.3 787.8 88.3C825.3 75.3 862.7 81.7 881.3 84.8L900 88L900 0L881.3 0C862.7 0 825.3 0 787.8 0C750.3 0 712.7 0 675.2 0C637.7 0 600.3 0 562.8 0C525.3 0 487.7 0 450.2 0C412.7 0 375.3 0 337.8 0C300.3 0 262.7 0 225.2 0C187.7 0 150.3 0 112.8 0C75.3 0 37.7 0 18.8 0L0 0Z" fill="#597fe7"></path><path d="M0 80L18.8 80C37.7 80 75.3 80 112.8 90.3C150.3 100.7 187.7 121.3 225.2 116C262.7 110.7 300.3 79.3 337.8 70.2C375.3 61 412.7 74 450.2 71.2C487.7 68.3 525.3 49.7 562.8 58.3C600.3 67 637.7 103 675.2 116C712.7 129 750.3 119 787.8 113.8C825.3 108.7 862.7 108.3 881.3 108.2L900 108L900 0L881.3 0C862.7 0 825.3 0 787.8 0C750.3 0 712.7 0 675.2 0C637.7 0 600.3 0 562.8 0C525.3 0 487.7 0 450.2 0C412.7 0 375.3 0 337.8 0C300.3 0 262.7 0 225.2 0C187.7 0 150.3 0 112.8 0C75.3 0 37.7 0 18.8 0L0 0Z" fill="#6d64d7"></path><path d="M0 84L18.8 84.8C37.7 85.7 75.3 87.3 112.8 80C150.3 72.7 187.7 56.3 225.2 47.5C262.7 38.7 300.3 37.3 337.8 40.5C375.3 43.7 412.7 51.3 450.2 55.5C487.7 59.7 525.3 60.3 562.8 57.8C600.3 55.3 637.7 49.7 675.2 52.5C712.7 55.3 750.3 66.7 787.8 67.7C825.3 68.7 862.7 59.3 881.3 54.7L900 50L900 0L881.3 0C862.7 0 825.3 0 787.8 0C750.3 0 712.7 0 675.2 0C637.7 0 600.3 0 562.8 0C525.3 0 487.7 0 450.2 0C412.7 0 375.3 0 337.8 0C300.3 0 262.7 0 225.2 0C187.7 0 150.3 0 112.8 0C75.3 0 37.7 0 18.8 0L0 0Z" fill="#8144c1"></path></svg>