<svg id="visual" viewBox="0 0 900 600" width="900" height="600" xmlns="http://www.w3.org/2000/svg" xmlns:xlink="http://www.w3.org/1999/xlink" version="1.1"><rect x="0" y="0" width="900" height="600" fill="#FFFFFF"></rect><path d="M0 439L21.5 443.8C43 448.7 86 458.3 128.8 444.8C171.7 431.3 214.3 394.7 257.2 387.3C300 380 343 402 385.8 415.3C428.7 428.7 471.3 433.3 514.2 435.7C557 438 600 438 642.8 433.7C685.7 429.3 728.3 420.7 771.2 404.8C814 389 857 366 878.5 354.5L900 343L900 0L878.5 0C857 0 814 0 771.2 0C728.3 0 685.7 0 642.8 0C600 0 557 0 514.2 0C471.3 0 428.7 0 385.8 0C343 0 300 0 257.2 0C214.3 0 171.7 0 128.8 0C86 0 43 0 21.5 0L0 0Z" fill="#79bdf4"></path><path d="M0 395L21.5 392.7C43 390.3 86 385.7 128.8 387.7C171.7 389.7 214.3 398.3 257.2 402.2C300 406 343 405 385.8 405.7C428.7 406.3 471.3 408.7 514.2 404.2C557 399.7 600 388.3 642.8 383C685.7 377.7 728.3 378.3 771.2 387C814 395.7 857 412.3 878.5 420.7L900 429L900 0L878.5 0C857 0 814 0 771.2 0C728.3 0 685.7 0 642.8 0C600 0 557 0 514.2 0C471.3 0 428.7 0 385.8 0C343 0 300 0 257.2 0C214.3 0 171.7 0 128.8 0C86 0 43 0 21.5 0L0 0Z" fill="#90c6f6"></path><path d="M0 278L21.5 275.7C43 273.3 86 268.7 128.8 276.8C171.7 285 214.3 306 257.2 317.2C300 328.3 343 329.7 385.8 329.8C428.7 330 471.3 329 514.2 321.8C557 314.7 600 301.3 642.8 306.8C685.7 312.3 728.3 336.7 771.2 333.3C814 330 857 299 878.5 283.5L900 268L900 0L878.5 0C857 0 814 0 771.2 0C728.3 0 685.7 0 642.8 0C600 0 557 0 514.2 0C471.3 0 428.7 0 385.8 0C343 0 300 0 257.2 0C214.3 0 171.7 0 128.8 0C86 0 43 0 21.5 0L0 0Z" fill="#a4cff8"></path><path d="M0 246L21.5 254C43 262 86 278 128.8 280.8C171.7 283.7 214.3 273.3 257.2 268.7C300 264 343 265 385.8 257.2C428.7 249.3 471.3 232.7 514.2 234.8C557 237 600 258 642.8 271.2C685.7 284.3 728.3 289.7 771.2 290.8C814 292 857 289 878.5 287.5L900 286L900 0L878.5 0C857 0 814 0 771.2 0C728.3 0 685.7 0 642.8 0C600 0 557 0 514.2 0C471.3 0 428.7 0 385.8 0C343 0 300 0 257.2 0C214.3 0 171.7 0 128.8 0C86 0 43 0 21.5 0L0 0Z" fill="#b8d8f9"></path><path d="M0 221L21.5 222.5C43 224 86 227 128.8 230.5C171.7 234 214.3 238 257.2 237.3C300 236.7 343 231.3 385.8 231.7C428.7 232 471.3 238 514.2 239.5C557 241 600 238 642.8 231.2C685.7 224.3 728.3 213.7 771.2 204.8C814 196 857 189 878.5 185.5L900 182L900 0L878.5 0C857 0 814 0 771.2 0C728.3 0 685.7 0 642.8 0C600 0 557 0 514.2 0C471.3 0 428.7 0 385.8 0C343 0 300 0 257.2 0C214.3 0 171.7 0 128.8 0C86 0 43 0 21.5 0L0 0Z" fill="#cae2fb"></path><path d="M0 190L21.5 187C43 184 86 178 128.8 173.3C171.7 168.7 214.3 165.3 257.2 167.7C300 170 343 178 385.8 172.7C428.7 167.3 471.3 148.7 514.2 143.5C557 138.3 600 146.7 642.8 150.8C685.7 155 728.3 155 771.2 160.8C814 166.7 857 178.3 878.5 184.2L900 190L900 0L878.5 0C857 0 814 0 771.2 0C728.3 0 685.7 0 642.8 0C600 0 557 0 514.2 0C471.3 0 428.7 0 385.8 0C343 0 300 0 257.2 0C214.3 0 171.7 0 128.8 0C86 0 43 0 21.5 0L0 0Z" fill="#dcebfc"></path><path d="M0 106L21.5 104.8C43 103.7 86 101.3 128.8 106C171.7 110.7 214.3 122.3 257.2 125.2C300 128 343 122 385.8 124C428.7 126 471.3 136 514.2 136.3C557 136.7 600 127.3 642.8 124C685.7 120.7 728.3 123.3 771.2 128.2C814 133 857 140 878.5 143.5L900 147L900 0L878.5 0C857 0 814 0 771.2 0C728.3 0 685.7 0 642.8 0C600 0 557 0 514.2 0C471.3 0 428.7 0 385.8 0C343 0 300 0 257.2 0C214.3 0 171.7 0 128.8 0C86 0 43 0 21.5 0L0 0Z" fill="#eef5fe"></path><path d="M0 69L21.5 65C43 61 86 53 128.8 54.5C171.7 56 214.3 67 257.2 73C300 79 343 80 385.8 80.2C428.7 80.3 471.3 79.7 514.2 81C557 82.3 600 85.7 642.8 82.5C685.7 79.3 728.3 69.7 771.2 62.3C814 55 857 50 878.5 47.5L900 45L900 0L878.5 0C857 0 814 0 771.2 0C728.3 0 685.7 0 642.8 0C600 0 557 0 514.2 0C471.3 0 428.7 0 385.8 0C343 0 300 0 257.2 0C214.3 0 171.7 0 128.8 0C86 0 43 0 21.5 0L0 0Z" fill="#ffffff"></path></svg>