<svg id="visual" viewBox="0 0 900 600" width="900" height="600" xmlns="http://www.w3.org/2000/svg" xmlns:xlink="http://www.w3.org/1999/xlink" version="1.1"><rect x="0" y="0" width="900" height="600" fill="#FFFFFF"></rect><path d="M0 279L30 288C60 297 120 315 180 339.5C240 364 300 395 360 406.8C420 418.7 480 411.3 540 391.5C600 371.7 660 339.3 720 333.8C780 328.3 840 349.7 870 360.3L900 371L900 0L870 0C840 0 780 0 720 0C660 0 600 0 540 0C480 0 420 0 360 0C300 0 240 0 180 0C120 0 60 0 30 0L0 0Z" fill="#8bc8fa"></path><path d="M0 229L30 251.2C60 273.3 120 317.7 180 323.8C240 330 300 298 360 305.3C420 312.7 480 359.3 540 355.2C600 351 660 296 720 272.8C780 249.7 840 258.3 870 262.7L900 267L900 0L870 0C840 0 780 0 720 0C660 0 600 0 540 0C480 0 420 0 360 0C300 0 240 0 180 0C120 0 60 0 30 0L0 0Z" fill="#a1d1fb"></path><path d="M0 236L30 243.3C60 250.7 120 265.3 180 269.8C240 274.3 300 268.7 360 275.3C420 282 480 301 540 312.7C600 324.3 660 328.7 720 333C780 337.3 840 341.7 870 343.8L900 346L900 0L870 0C840 0 780 0 720 0C660 0 600 0 540 0C480 0 420 0 360 0C300 0 240 0 180 0C120 0 60 0 30 0L0 0Z" fill="#b6dafc"></path><path d="M0 128L30 139C60 150 120 172 180 175.5C240 179 300 164 360 154.7C420 145.3 480 141.7 540 139.5C600 137.3 660 136.7 720 140C780 143.3 840 150.7 870 154.3L900 158L900 0L870 0C840 0 780 0 720 0C660 0 600 0 540 0C480 0 420 0 360 0C300 0 240 0 180 0C120 0 60 0 30 0L0 0Z" fill="#c9e3fd"></path><path d="M0 191L30 195.3C60 199.7 120 208.3 180 214.5C240 220.7 300 224.3 360 227.5C420 230.7 480 233.3 540 217.3C600 201.3 660 166.7 720 143.7C780 120.7 840 109.3 870 103.7L900 98L900 0L870 0C840 0 780 0 720 0C660 0 600 0 540 0C480 0 420 0 360 0C300 0 240 0 180 0C120 0 60 0 30 0L0 0Z" fill="#dbecfe"></path><path d="M0 171L30 166.7C60 162.3 120 153.7 180 153.7C240 153.7 300 162.3 360 146.5C420 130.7 480 90.3 540 90C600 89.7 660 129.3 720 135.7C780 142 840 115 870 101.5L900 88L900 0L870 0C840 0 780 0 720 0C660 0 600 0 540 0C480 0 420 0 360 0C300 0 240 0 180 0C120 0 60 0 30 0L0 0Z" fill="#edf6fe"></path><path d="M0 101L30 92.3C60 83.7 120 66.3 180 64C240 61.7 300 74.3 360 69.2C420 64 480 41 540 30.3C600 19.7 660 21.3 720 24.8C780 28.3 840 33.7 870 36.3L900 39L900 0L870 0C840 0 780 0 720 0C660 0 600 0 540 0C480 0 420 0 360 0C300 0 240 0 180 0C120 0 60 0 30 0L0 0Z" fill="#ffffff"></path></svg>