<svg id="visual" viewBox="0 0 900 600" width="900" height="600" xmlns="http://www.w3.org/2000/svg" xmlns:xlink="http://www.w3.org/1999/xlink" version="1.1"><rect x="0" y="0" width="900" height="600" fill="#FFFFFF"></rect><path d="M0 395L18.8 395.2C37.7 395.3 75.3 395.7 112.8 353.3C150.3 311 187.7 226 225.2 190.5C262.7 155 300.3 169 337.8 183.2C375.3 197.3 412.7 211.7 450.2 256.7C487.7 301.7 525.3 377.3 562.8 386.7C600.3 396 637.7 339 675.2 305.3C712.7 271.7 750.3 261.3 787.8 273.3C825.3 285.3 862.7 319.7 881.3 336.8L900 354L900 0L881.3 0C862.7 0 825.3 0 787.8 0C750.3 0 712.7 0 675.2 0C637.7 0 600.3 0 562.8 0C525.3 0 487.7 0 450.2 0C412.7 0 375.3 0 337.8 0C300.3 0 262.7 0 225.2 0C187.7 0 150.3 0 112.8 0C75.3 0 37.7 0 18.8 0L0 0Z" fill="#4facf7"></path><path d="M0 103L18.8 122.3C37.7 141.7 75.3 180.3 112.8 189.3C150.3 198.3 187.7 177.7 225.2 179.3C262.7 181 300.3 205 337.8 222.7C375.3 240.3 412.7 251.7 450.2 247.3C487.7 243 525.3 223 562.8 231.5C600.3 240 637.7 277 675.2 258.3C712.7 239.7 750.3 165.3 787.8 158.5C825.3 151.7 862.7 212.3 881.3 242.7L900 273L900 0L881.3 0C862.7 0 825.3 0 787.8 0C750.3 0 712.7 0 675.2 0C637.7 0 600.3 0 562.8 0C525.3 0 487.7 0 450.2 0C412.7 0 375.3 0 337.8 0C300.3 0 262.7 0 225.2 0C187.7 0 150.3 0 112.8 0C75.3 0 37.7 0 18.8 0L0 0Z" fill="#597fe7"></path><path d="M0 112L18.8 122.2C37.7 132.3 75.3 152.7 112.8 160.8C150.3 169 187.7 165 225.2 141.7C262.7 118.3 300.3 75.7 337.8 54C375.3 32.3 412.7 31.7 450.2 49.3C487.7 67 525.3 103 562.8 120.7C600.3 138.3 637.7 137.7 675.2 121C712.7 104.3 750.3 71.7 787.8 65.5C825.3 59.3 862.7 79.7 881.3 89.8L900 100L900 0L881.3 0C862.7 0 825.3 0 787.8 0C750.3 0 712.7 0 675.2 0C637.7 0 600.3 0 562.8 0C525.3 0 487.7 0 450.2 0C412.7 0 375.3 0 337.8 0C300.3 0 262.7 0 225.2 0C187.7 0 150.3 0 112.8 0C75.3 0 37.7 0 18.8 0L0 0Z" fill="#8144c1"></path></svg>